<?xml version="1.0" encoding="UTF-8" standalone="no"?>
<!DOCTYPE svg PUBLIC "-//W3C//DTD SVG 1.1//EN" "http://www.w3.org/Graphics/SVG/1.1/DTD/svg11.dtd">
<svg width="100%" height="100%" viewBox="0 0 20 20" version="1.1" xmlns="http://www.w3.org/2000/svg" xmlns:xlink="http://www.w3.org/1999/xlink" xml:space="preserve" xmlns:serif="http://www.serif.com/" style="fill-rule:evenodd;clip-rule:evenodd;stroke-linejoin:round;stroke-miterlimit:2;">
    <rect id="chevron" x="0" y="0" width="20" height="20" style="fill:none;"/>
    <g id="chevron1" serif:id="chevron">
        <g transform="matrix(1.2,0,0,0.875,-2.6,1.25)">
            <path d="M8.821,3.313C8.694,3.11 8.488,3.037 8.305,3.129C8.122,3.222 8,3.462 8,3.73C8,6.806 8,13.194 8,16.27C8,16.538 8.122,16.778 8.305,16.871C8.488,16.963 8.694,16.89 8.821,16.687C9.975,14.839 12.019,11.569 12.74,10.416C12.89,10.177 12.89,9.823 12.74,9.584C12.019,8.431 9.975,5.161 8.821,3.313Z" style="fill:white;"/>
        </g>
    </g>
</svg>
