<?xml version="1.0" encoding="UTF-8" standalone="no"?>
<!DOCTYPE svg PUBLIC "-//W3C//DTD SVG 1.1//EN" "http://www.w3.org/Graphics/SVG/1.1/DTD/svg11.dtd">
<svg width="100%" height="100%" viewBox="0 0 20 20" version="1.1" xmlns="http://www.w3.org/2000/svg" xmlns:xlink="http://www.w3.org/1999/xlink" xml:space="preserve" xmlns:serif="http://www.serif.com/" style="fill-rule:evenodd;clip-rule:evenodd;stroke-linejoin:round;stroke-miterlimit:2;">
    <g transform="matrix(1,0,0,1,-504,0)">
        <rect id="clip_cut" x="504" y="0" width="20" height="20" style="fill:none;"/>
        <g id="clip_cut1" serif:id="clip_cut">
            <g transform="matrix(0.644607,0.644607,-0.607107,0.607107,188.743182,-327.398953)">
                <path d="M507,5L521,5L521,6L522,6L522,14L521,14L521,15L507,15L507,14L506,14L506,6L507,6L507,5ZM509,9L508,8L508,12L509,11L512.268,11C512.614,11.598 513.26,12 514,12C514.74,12 515.386,11.598 515.732,11L519,11L520,12L520,8L519,9L515.732,9C515.386,8.402 514.74,8 514,8C513.26,8 512.614,8.402 512.268,9L509,9Z" style="fill:white;"/>
            </g>
        </g>
    </g>
</svg>
