<?xml version="1.0" encoding="UTF-8" standalone="no"?>
<!DOCTYPE svg PUBLIC "-//W3C//DTD SVG 1.1//EN" "http://www.w3.org/Graphics/SVG/1.1/DTD/svg11.dtd">
<svg width="100%" height="100%" viewBox="0 0 20 20" version="1.1" xmlns="http://www.w3.org/2000/svg" xmlns:xlink="http://www.w3.org/1999/xlink" xml:space="preserve" xmlns:serif="http://www.serif.com/" style="fill-rule:evenodd;clip-rule:evenodd;stroke-linecap:round;stroke-linejoin:round;stroke-miterlimit:1.5;">
    <g transform="matrix(1,0,0,1,-264,-25)">
        <g id="new" transform="matrix(1,0,0,1,-720,25)">
            <rect x="984" y="0" width="20" height="20" style="fill:none;"/>
            <g transform="matrix(0.642857,0,0,0.642857,848.714286,3.571429)">
                <path d="M226,3L226,17" style="fill:none;stroke:white;stroke-width:3.11px;"/>
                <path d="M219,10L233,10" style="fill:none;stroke:white;stroke-width:3.11px;"/>
            </g>
            <g transform="matrix(1,0,0,1,720,-25)">
                <path d="M274,27C278.415,27 282,30.585 282,35C282,39.415 278.415,43 274,43C269.585,43 266,39.415 266,35C266,30.585 269.585,27 274,27ZM274,28C270.137,28 267,31.137 267,35C267,38.863 270.137,42 274,42C277.863,42 281,38.863 281,35C281,31.137 277.863,28 274,28Z" style="fill:white;"/>
            </g>
        </g>
    </g>
</svg>
